<?xml version="1.0" encoding="utf-8"?>
<!DOCTYPE svg PUBLIC "-//W3C//DTD SVG 1.1//EN" "http://www.w3.org/Graphics/SVG/1.1/DTD/svg11.dtd">
<svg xmlns="http://www.w3.org/2000/svg" xmlns:xlink="http://www.w3.org/1999/xlink" version="1.0" width="343pt" height="340pt">
<rect width="428.75" height="425" fill="#0000ff"/>
<g fill="#fff">
<path d="M 186.64897,65.480367 C 186.50176,83.078558 171.97518,97.221807 154.17772,97.094756 C 136.38026,96.967706 122.03,82.618314 122.10061,65.019576 C 122.17121,47.420839 136.63602,33.215826 154.43379,33.267127 C 172.23155,33.318428 186.64406,47.606678 186.65007,65.205636"/>
<path d="M 127.71647,81.536503 L 141.42615,239.55857 L 258.31919,238.83701 L 303.77759,347.79287 L 358.6163,330.47538 L 347.07131,303.05603 L 318.93039,310.27165 L 278.52292,210.6961 L 169.56706,210.6961 L 169.56706,188.32767 L 234.50764,188.32767 L 234.50764,159.4652 L 161.62988,159.4652 L 160.18676,96.689304 L 160.18676,96.689304"/>
<path d="M 124.21875,161.75 C -45.440292,275.71724 167.90561,487.74881 280.0625,327.59375 L 267.6875,285.03125 C 217.81425,422.65276 14.297265,311.90314 126.28125,199.15625 L 124.21875,161.75 z"/>
</g>
</svg>
