<svg xmlns="http://www.w3.org/2000/svg" xmlns:xlink="http://www.w3.org/1999/xlink" viewBox="0 0 54 54"><defs><style>.cls-1,.cls-4{fill:none;}.cls-2{clip-path:url(#clip-path);}.cls-3{fill:#ffdf1c;}.cls-4{stroke:#231f20;stroke-width:0.1px;}.cls-5{fill:#231f20;}</style><clipPath id="clip-path"><rect class="cls-1" width="54" height="54"/></clipPath></defs><title>Asset 2</title><g id="Layer_2" data-name="Layer 2"><g id="Layer_1-2" data-name="Layer 1"><g class="cls-2"><path class="cls-3" d="M25.59,53.36a2,2,0,0,0,2.82,0l25-25a2,2,0,0,0,0-2.82l-25-25a2,2,0,0,0-2.82,0l-25,25a2,2,0,0,0,0,2.82Z"/><path class="cls-4" d="M25.59,53.36a2,2,0,0,0,2.82,0l25-25a2,2,0,0,0,0-2.82l-25-25a2,2,0,0,0-2.82,0l-25,25a2,2,0,0,0,0,2.82Z"/><path class="cls-5" d="M52.81,26.14l-25-25a1.21,1.21,0,0,0-1.71,0l-25,25a1.21,1.21,0,0,0,0,1.71l25,25a1.21,1.21,0,0,0,1.71,0l25-25a1.21,1.21,0,0,0,0-1.71M27.11,52.07a.16.16,0,0,1-.23,0l-25-25a.16.16,0,0,1,0-.23l25-25a.16.16,0,0,1,.23,0l25,25a.16.16,0,0,1,0,.23Z"/><path class="cls-5" d="M39.22,22.2a18.92,18.92,0,0,1-2.64,8.89c-1.48,2.95-3.35,3.88-3.35,8l-.06,5.47h-3.5l.06-5.47c0-4.08,1.5-5.35,3.43-8.28A23.05,23.05,0,0,0,36,22.19c-.83.13-1.89.63-2.72.68a.78.78,0,0,1-.56-.81A2.17,2.17,0,0,1,33,21.4c1.54-2.33,4.57-6.94,4.57-6.94s3,4.61,4.57,6.94a2.19,2.19,0,0,1,.31.67.78.78,0,0,1-.56.81c-.84-.05-1.88-.54-2.71-.67"/><path class="cls-5" d="M24.36,38.1a18.93,18.93,0,0,0-2.64-8.89c-1.48-2.94-3.35-3.88-3.35-8l-.06-5.47h-3.5l.06,5.47c0,4.08,1.5,5.35,3.43,8.28a23.06,23.06,0,0,1,2.85,8.59c-.82-.13-1.88-.63-2.72-.68a.78.78,0,0,0-.56.81,2.17,2.17,0,0,0,.31.67c1.54,2.33,4.57,6.94,4.57,6.94s3-4.61,4.57-6.94a2.19,2.19,0,0,0,.31-.67.78.78,0,0,0-.56-.81c-.84.05-1.88.54-2.71.67"/><path class="cls-5" d="M31.57,10.81s.05,5.73-.83,7.7a6.3,6.3,0,0,1-3.84,3.72h0A6.3,6.3,0,0,1,23,18.51c-.88-2-.83-7.7-.83-7.7Z"/></g></g></g></svg>