<svg xmlns="http://www.w3.org/2000/svg" xmlns:xlink="http://www.w3.org/1999/xlink" viewBox="0 0 53.39 53.39"><defs><style>.cls-1,.cls-4{fill:none;}.cls-2{clip-path:url(#clip-path);}.cls-3{fill:#ffdf1c;}.cls-4{stroke:#231f20;stroke-width:0.1px;}.cls-5{clip-path:url(#clip-path-2);}.cls-6{fill:#231f20;}</style><clipPath id="clip-path" transform="translate(-0.31 -0.31)"><rect class="cls-1" x="0.31" y="0.31" width="53.39" height="53.39"/></clipPath><clipPath id="clip-path-2" transform="translate(-0.31 -0.31)"><rect class="cls-1" width="54" height="54"/></clipPath></defs><title>Asset 8</title><g id="Layer_2" data-name="Layer 2"><g id="Layer_1-2" data-name="Layer 1"><g class="cls-2"><path class="cls-3" d="M25.61,53.06a2,2,0,0,0,2.79,0L53.06,28.4a2,2,0,0,0,0-2.79L28.4.94a2,2,0,0,0-2.79,0L.94,25.61a2,2,0,0,0,0,2.79Z" transform="translate(-0.31 -0.31)"/><path class="cls-4" d="M25.61,53.06a2,2,0,0,0,2.79,0L53.06,28.4a2,2,0,0,0,0-2.79L28.4.94a2,2,0,0,0-2.79,0L.94,25.61a2,2,0,0,0,0,2.79Z" transform="translate(-0.31 -0.31)"/></g><g class="cls-5"><path class="cls-6" d="M52.52,26.15,27.85,1.48a1.2,1.2,0,0,0-1.69,0L1.49,26.15a1.2,1.2,0,0,0,0,1.69L26.15,52.51a1.2,1.2,0,0,0,1.69,0L52.52,27.85a1.2,1.2,0,0,0,0-1.69M27.11,51.78a.16.16,0,0,1-.23,0L2.22,27.11a.16.16,0,0,1,0-.23L26.89,2.22a.16.16,0,0,1,.23,0L51.78,26.89a.16.16,0,0,1,0,.23Z" transform="translate(-0.31 -0.31)"/><polygon class="cls-6" points="27.42 13.37 27.42 20.78 32.46 26.91 32.48 39.92 36.88 39.92 36.89 25.71 31.69 19.59 31.69 13.37 27.42 13.37"/><polygon class="cls-6" points="20.79 13.37 20.79 39.92 16.48 39.92 16.5 13.37 20.79 13.37"/><rect class="cls-6" x="27.38" y="24.97" width="1.91" height="3.58"/><rect class="cls-6" x="27.38" y="30.64" width="1.91" height="3.58"/><rect class="cls-6" x="27.38" y="36.31" width="1.91" height="3.58"/></g></g></g></svg>