<?xml version="1.0" encoding="UTF-8" standalone="no"?>
<!-- Created with Inkscape (http://www.inkscape.org/) -->

<svg
   xmlns:dc="http://purl.org/dc/elements/1.1/"
   xmlns:cc="http://creativecommons.org/ns#"
   xmlns:rdf="http://www.w3.org/1999/02/22-rdf-syntax-ns#"
   xmlns:svg="http://www.w3.org/2000/svg"
   xmlns="http://www.w3.org/2000/svg"
   xmlns:xlink="http://www.w3.org/1999/xlink"
   xmlns:sodipodi="http://sodipodi.sourceforge.net/DTD/sodipodi-0.dtd"
   xmlns:inkscape="http://www.inkscape.org/namespaces/inkscape"
   version="1.0"
   width="177.56584"
   height="177.56439"
   viewBox="0 0 50.465499 46.600175"
   id="svg2"
   xml:space="preserve"
   sodipodi:version="0.32"
   inkscape:version="0.48.4 r9939"
   sodipodi:docname="D-140-2-G.svg"
   inkscape:output_extension="org.inkscape.output.svg.inkscape"><metadata
   id="metadata86"><rdf:RDF><cc:Work
       rdf:about=""><dc:format>image/svg+xml</dc:format><dc:type
         rdf:resource="http://purl.org/dc/dcmitype/StillImage" /><dc:title></dc:title></cc:Work></rdf:RDF></metadata><sodipodi:namedview
   inkscape:window-height="1004"
   inkscape:window-width="1280"
   inkscape:pageshadow="2"
   inkscape:pageopacity="0.0"
   guidetolerance="10.0"
   gridtolerance="10.0"
   objecttolerance="10.0"
   borderopacity="1.0"
   bordercolor="#666666"
   pagecolor="#ffffff"
   id="base"
   showgrid="false"
   inkscape:zoom="2.0483958"
   inkscape:cx="77.328512"
   inkscape:cy="74.993054"
   inkscape:window-x="-8"
   inkscape:window-y="-8"
   inkscape:current-layer="svg2"
   inkscape:window-maximized="1"
   fit-margin-top="0.2"
   fit-margin-right="0.2"
   fit-margin-bottom="0.2"
   fit-margin-left="0.2" />
 <defs
   id="defs4"><inkscape:perspective
   sodipodi:type="inkscape:persp3d"
   inkscape:vp_x="0 : 316.06299 : 1"
   inkscape:vp_y="0 : 1000 : 0"
   inkscape:vp_z="628.58264 : 316.06299 : 1"
   inkscape:persp3d-origin="314.29132 : 210.70866 : 1"
   id="perspective88" />
  <style
   type="text/css"
   id="style6" />
 
  
  
  
  
  
  
  
  
  
  
  
  
  
  
  
  
  
  
  
  
  
  
  
 
   
   
   
   
   
   
   
   
   
   
   
   
   
   
   
   
   
   
   
   
   
   
   
   
   
   
   
   
   
  <inkscape:perspective
   id="perspective2555"
   inkscape:persp3d-origin="100 : 66.666667 : 1"
   inkscape:vp_z="200 : 100 : 1"
   inkscape:vp_y="0 : 1000 : 0"
   inkscape:vp_x="0 : 100 : 1"
   sodipodi:type="inkscape:persp3d" /><radialGradient
   gradientTransform="matrix(0,2.342476,-2.291353,0,562.9128,1323.77)"
   gradientUnits="userSpaceOnUse"
   xlink:href="#linearGradient2955"
   id="radialGradient14758"
   fy="153.9283"
   fx="-483.50824"
   r="300.00003"
   cy="153.9283"
   cx="-483.50824" /><radialGradient
   gradientTransform="matrix(0,2.342476,-2.291353,0,562.9128,1323.77)"
   gradientUnits="userSpaceOnUse"
   xlink:href="#linearGradient2955"
   id="radialGradient13767"
   fy="153.9283"
   fx="-483.50824"
   r="300.00003"
   cy="153.9283"
   cx="-483.50824" /><radialGradient
   gradientTransform="matrix(0,2.342476,-2.291353,0,562.9128,1323.77)"
   gradientUnits="userSpaceOnUse"
   xlink:href="#linearGradient2955"
   id="radialGradient1357"
   fy="153.9283"
   fx="-483.50824"
   r="300.00003"
   cy="153.9283"
   cx="-483.50824" /><radialGradient
   gradientTransform="matrix(-4.167939e-4,2.182867,-1.884232,-3.599562e-4,1395.597,-309.1214)"
   gradientUnits="userSpaceOnUse"
   xlink:href="#linearGradient2955"
   id="radialGradient1911"
   fy="218.90099"
   fx="225.52438"
   r="300"
   cy="218.90099"
   cx="225.52438" /><clipPath
   id="clip"><path
     id="path10"
     d="m 0,-200 0,800 300,0 0,-800 -300,0 z"
     inkscape:connector-curvature="0" /></clipPath><polygon
   id="star"
   transform="scale(53,53)"
   points="0,-1 0.58778525,0.80901699 -0.95105652,-0.30901699 0.95105652,-0.30901699 -0.58778525,0.80901699 0,-1 " /><radialGradient
   gradientTransform="matrix(-4.167939e-4,2.182867,-1.884232,-3.599562e-4,615.5972,-289.1214)"
   gradientUnits="userSpaceOnUse"
   xlink:href="#linearGradient2955"
   id="radialGradient2961"
   fy="218.90099"
   fx="225.52438"
   r="300"
   cy="218.90099"
   cx="225.52438" /><linearGradient
   id="linearGradient2955"><stop
     id="stop2965"
     offset="0"
     style="stop-color:#ffffff;stop-opacity:0" /><stop
     id="stop2959"
     offset="1"
     style="stop-color:#000000;stop-opacity:0.64583331" /></linearGradient><inkscape:perspective
   id="perspective3396"
   inkscape:persp3d-origin="75 : 50 : 1"
   inkscape:vp_z="150 : 75 : 1"
   inkscape:vp_y="0 : 1000 : 0"
   inkscape:vp_x="0 : 75 : 1"
   sodipodi:type="inkscape:persp3d" /></defs>
 <g
   id="g5591"
   transform="translate(-42.976025,-50.510606)">
  </g><g
   id="g5608"
   transform="translate(-42.976025,-50.510606)">
  </g><g
   id="g5610"
   transform="translate(-42.976025,-50.510606)">
  </g><g
   id="layer2"
   transform="translate(-42.976025,-50.510606)">
  </g><g
   id="g5613"
   transform="translate(-42.976025,-50.510606)">
  </g>
<g
   id="g2558"
   transform="matrix(0.2275431,0.2267662,-0.2267662,0.2275431,77.410441,-62.734406)"
   style="fill:#ffffff;fill-opacity:1;stroke:none" /><path
   inkscape:connector-curvature="0"
   style="fill:#ffd520;fill-rule:evenodd;stroke:none;fill-opacity:1"
   d="m 24.15775,48.030296 c 0.593283,0.593993 1.557456,0.593993 2.150739,0 L 49.963769,24.37555 c 0.593282,-0.593958 0.593282,-1.557385 -5.69e-4,-2.150632 L 26.307778,-1.4306741 c -0.593638,-0.593254 -1.556035,-0.593254 -2.150028,0 L 0.50282457,22.224918 c -0.593993,0.593247 -0.595058,1.556674 -7.1e-4,2.150632 L 24.15775,48.030296 z"
   id="path11" /><path
   inkscape:connector-curvature="0"
   style="fill:#000000;fill-rule:evenodd;stroke:none"
   d="m 24.502352,47.6868 c 0.201787,0.201787 0.445494,0.302681 0.731123,0.302681 0.285983,0 0.529691,-0.100894 0.731833,-0.302681 l 23.65528,-23.655385 c 0.201788,-0.201929 0.302326,-0.44546 0.302326,-0.731017 0,-0.285841 -0.100894,-0.529407 -0.302681,-0.731301 L 25.964598,-1.0865161 c -0.202142,-0.201567 -0.445495,-0.302524 -0.731123,-0.302524 -0.285273,0 -0.528626,0.100957 -0.730768,0.302524 L 0.84742657,22.569097 c -0.202143,0.201894 -0.303036,0.44546 -0.303036,0.731301 0,0.285557 0.100538,0.529088 0.30268,0.731017 L 24.502352,47.6868 z"
   id="path13" /><path
   inkscape:connector-curvature="0"
   style="fill:#ffd520;fill-rule:evenodd;stroke:none;fill-opacity:1"
   d="m 25.018543,47.170495 c 0.05933,0.05933 0.131091,0.08917 0.214932,0.08917 0.0842,0 0.156314,-0.02984 0.215642,-0.08917 l 23.65528,-23.654994 c 0.05897,-0.05933 0.08881,-0.130771 0.08881,-0.214755 0,-0.0843 -0.02984,-0.155781 -0.08917,-0.215429 L 25.448762,-0.57028206 c -0.05933,-0.05898 -0.131446,-0.08882 -0.215287,-0.08882 -0.08349,0 -0.154893,0.02984 -0.214577,0.08882 L 1.3636176,23.085317 c -0.05933,0.05965 -0.08917,0.131126 -0.08917,0.215429 -3.55e-4,0.08398 0.02949,0.155426 0.08846,0.214755 L 25.018543,47.170495 z"
   id="path15" /><path
   inkscape:connector-curvature="0"
   style="fill:#000000;fill-rule:evenodd;stroke:none"
   d="m 28.081587,15.298088 -0.0014,5.072851 c 0,5.012457 3.688299,8.765237 7.872185,12.248443 l -3.243515,2.673859 C 29.950249,32.82824 27.385989,30.204723 25.296,27.317889 l -0.06253,-0.08221 -0.06075,0.08221 c -2.093186,2.886834 -4.657446,5.510351 -7.413901,7.975352 l -3.245647,-2.673859 c 4.183531,-3.483206 7.872541,-7.235276 7.872541,-12.247768 l 0,-5.081164 -2.672614,0.717801 c -0.388653,0.142246 -0.825622,0.01524 -1.080698,-0.311882 -0.266799,-0.339663 -0.266799,-0.815639 -0.0103,-1.160169 l 6.591121,-9.1753115 6.633042,9.1669985 c 0.281365,0.374691 0.255076,0.897846 -0.0643,1.242376 -0.283497,0.30563 -0.732899,0.397571 -1.113737,0.222712 l -2.586641,-0.694887 z"
   id="path17" /><path
   inkscape:connector-curvature="0"
   style="fill:#ffffff;fill-rule:evenodd;stroke:none"
   d="m 18.655498,31.33711 -1.467575,1.364834 0.332878,0.351101 1.463667,-1.362418 -0.32897,-0.353517 z"
   id="path19" /><path
   inkscape:connector-curvature="0"
   style="fill:#ffffff;fill-rule:evenodd;stroke:none"
   d="m 31.781255,31.340236 -0.329326,0.351101 1.463668,1.362385 0.330746,-0.350394 -1.465088,-1.363092 z"
   id="path21" /><path
   inkscape:connector-curvature="0"
   style="fill:#ffffff;fill-rule:evenodd;stroke:none"
   d="m 29.460702,28.865219 -0.35739,0.320904 1.337905,1.484876 0.357746,-0.320196 -1.338261,-1.485584 z"
   id="path23" /><path
   inkscape:connector-curvature="0"
   style="fill:#ffffff;fill-rule:evenodd;stroke:none"
   d="m 20.975695,28.858966 -1.341103,1.487327 0.360233,0.320904 1.338616,-1.484874 -0.357746,-0.323357 z"
   id="path25" /><path
   inkscape:connector-curvature="0"
   style="fill:#ffffff;fill-rule:evenodd;stroke:none"
   d="m 27.591329,25.997816 -0.416719,0.239374 0.998634,1.733628 0.419916,-0.241789 -1.001831,-1.731213 z"
   id="path27" /><path
   inkscape:connector-curvature="0"
   style="fill:#ffffff;fill-rule:evenodd;stroke:none"
   d="m 22.848265,25.997816 -1.002185,1.735726 0.419205,0.237276 0.999699,-1.731887 -0.416719,-0.241115 z"
   id="path29" /><path
   inkscape:connector-curvature="0"
   style="fill:#ffffff;fill-rule:evenodd;stroke:none"
   d="m 26.525197,23.022166 -0.462903,0.120753 0.512994,1.937974 0.464679,-0.12768 -0.51477,-1.931047 z"
   id="path31" /><path
   inkscape:connector-curvature="0"
   style="fill:#ffffff;fill-rule:evenodd;stroke:none"
   d="m 23.923635,23.022166 -0.51335,1.933462 0.46539,0.125265 0.510862,-1.94007 -0.462902,-0.118657 z"
   id="path33" /><path
   inkscape:connector-curvature="0"
   style="fill:#ffffff;fill-rule:evenodd;stroke:none"
   d="m 26.463382,19.62017 -0.478179,0.01524 0.06999,1.999398 0.478179,-0.01666 -0.06999,-1.997977 z"
   id="path35" /><path
   inkscape:connector-curvature="0"
   style="fill:#ffffff;fill-rule:evenodd;stroke:none"
   d="m 24.016002,19.62017 -0.06963,1.999718 0.480666,0.01734 0.06963,-1.999718 -0.480665,-0.01734 z"
   id="path37" /><path
   inkscape:connector-curvature="0"
   style="fill:#ffffff;fill-rule:evenodd;stroke:none"
   d="m 23.982252,16.193519 0,2.001778 0.480311,0 0,-2.001778 -0.480311,0 z"
   id="path39" /><path
   inkscape:connector-curvature="0"
   style="fill:#ffffff;fill-rule:evenodd;stroke:none"
   d="m 26.002966,16.193519 0,2.001778 0.480665,0 0,-2.001778 -0.480665,0 z"
   id="path41" /></svg>