<?xml version="1.0" encoding="UTF-8" standalone="no"?>
<svg
   xmlns:dc="http://purl.org/dc/elements/1.1/"
   xmlns:cc="http://creativecommons.org/ns#"
   xmlns:rdf="http://www.w3.org/1999/02/22-rdf-syntax-ns#"
   xmlns:svg="http://www.w3.org/2000/svg"
   xmlns="http://www.w3.org/2000/svg"
   version="1.0"
   id="svg7837"
   viewBox="0 0 1000 1000"
   height="1000"
   width="1000"
   xml:space="preserve"><metadata
     id="metadata8331"><rdf:RDF><cc:Work
         rdf:about=""><dc:format>image/svg+xml</dc:format><dc:type
           rdf:resource="http://purl.org/dc/dcmitype/StillImage" /><dc:title></dc:title></cc:Work></rdf:RDF></metadata><defs
     id="defs8329" /><path
     id="path13339"
     d="M 0,936.49449 C 0,971.6342 28.365792,1000 63.505504,1000 H 936.4945 C 971.63421,1000 1000,971.6342 1000,936.49449 V 63.5055 C 1000,28.36579 971.63421,0 936.4945,0 H 63.505504 C 28.365792,0 0,28.36579 0,63.5055 Z"
     style="fill:#ffffff;fill-opacity:1;fill-rule:evenodd;stroke:#000000;stroke-width:5;stroke-linecap:butt;stroke-linejoin:bevel;stroke-miterlimit:4;stroke-dasharray:none" /><path
     d="M 16.511431,936.49449 V 63.5055 c 0,-25.82557 21.168502,-46.99407 46.994073,-46.99407 H 936.49449 c 25.82557,0 46.99408,21.1685 46.99408,46.99407 v 872.98899 c 0,25.82557 -21.16851,46.99408 -46.99408,46.99408 H 63.505504 c -25.825571,0 -46.994073,-21.16851 -46.994073,-46.99408 z m 24.978831,0 c 0,12.27774 9.737511,22.01524 22.015242,22.01524 H 936.49449 c 12.27774,0 22.01525,-9.7375 22.01525,-22.01524 V 63.5055 c 0,-12.27773 -9.73751,-22.01524 -22.01525,-22.01524 H 63.505504 c -11.85436,0 -22.015242,9.73751 -22.015242,22.01524 z"
     style="fill:#000000;fill-opacity:1;fill-rule:evenodd;stroke:none;stroke-width:0.24327613;stroke-linecap:butt;stroke-linejoin:bevel"
     id="path13343" /><path
     d="m 794.66554,204.48771 c 162.57409,162.57409 162.57409,426.33363 0,589.33108 -162.57409,162.57409 -426.33361,162.57409 -589.33108,0 -162.574087,-162.99745 -162.574087,-426.75699 0,-589.33108 162.99747,-162.57408 426.75699,-162.57408 589.33108,0 z M 610.0762,813.29381 c 45.72397,-16.08805 88.90771,-42.337 125.31753,-78.74682 129.97461,-129.9746 129.97461,-340.81287 0,-470.78747 C 611.34632,139.28874 413.20914,134.20829 282.38781,247.24808 Z M 542.76038,829.38188 235.39373,297.20575 c -99.91532,130.39796 -90.17781,317.95089 29.21254,437.34124 76.2066,75.78323 179.50888,107.53598 278.15411,94.83489 z"
     style="fill:#ef0c23;fill-opacity:1;fill-rule:evenodd;stroke:none;stroke-width:0.24327613;stroke-linecap:butt;stroke-linejoin:bevel"
     id="path13347" /><path
     id="path13357"
     d="m 278.57748,457.23962 c 14.39458,2.11685 22.01524,6.77392 29.21253,15.66469 h 19.47502 l 44.87722,77.47672 H 239.20406 v 35.98645 h 153.68332 l 5.50381,9.31414 H 194.75021 v -9.31414 h 9.31414 v -35.98645 h -11.85436 v -24.13209 h 6.35055 V 483.91193 L 210.83827,467.4005 223.116,406.43522 c 23.28536,-5.50381 34.29298,-6.35055 61.38866,-8.4674 l 5.50381,10.58425 c -16.51143,0.42337 -40.22015,1.69348 -58.0017,6.35055 l -11.43099,55.88484 13.97121,2.11685 c 8.89077,-9.31414 16.08807,-15.66469 30.48265,-16.08806 -7.62066,-2.54022 -12.7011,-9.73751 -12.7011,-18.20491 0,-11.00762 8.89077,-19.89839 19.47502,-19.89839 11.00762,0 19.89839,8.89077 19.89839,19.89839 0,8.4674 -5.50381,15.66469 -13.12447,18.62828 z"
     style="fill:#000000;fill-opacity:1;fill-rule:evenodd;stroke:none;stroke-width:0.42337003;stroke-linecap:butt;stroke-linejoin:bevel" /><path
     id="path1886"
     d="m 669.96898,395.31246 c -40.11431,0 -80.00297,3.9277 -103.5,11.125 l -12.28125,60.96875 -11.4375,16.5 v 42.34375 h -6.75 v 24.125 h 11.84375 v 36 h -59.6875 l 5.5,9.3125 h 304.40625 v -9.3125 h -8.46875 v -36 h 11.84375 v -22.84375 h -5.9375 v -41.9375 l -7.59375,-15.21875 -13.125,-62.65625 c -24.34378,-8.4674 -64.69819,-12.40625 -104.8125,-12.40625 z m -5,12.71875 c 40.79072,-0.29564 82.0257,2.88371 100.46875,9.40625 l 11.4375,55.46875 h -125.3125 c -5.92718,-7.19728 -16.51764,-14.8095 -29.21875,-15.65625 7.62065,-2.96359 12.71875,-10.15761 12.71875,-18.625 0,-11.00762 -8.88449,-19.90624 -19.46875,-19.90625 -11.00762,0 -19.90626,8.89862 -19.90625,19.90625 0,8.4674 5.49019,15.66142 12.6875,18.625 -15.24133,0.42337 -24.98208,8.45896 -30.0625,15.65625 l -13.96875,-1.6875 9.75,-54.1875 c 19.2501,-5.75519 54.88319,-8.73914 90.875,-9 z m -81.5625,142.34375 h 172.3125 v 36 h -172.3125 z"
     style="fill:#000000;fill-opacity:1;fill-rule:evenodd;stroke:none;stroke-width:0.18000001;stroke-linecap:butt;stroke-linejoin:bevel" /><path
     id="path13361"
     d="m 449.61897,520.32176 -28.36579,-49.5343 h 7.62066 l -7.19729,-53.34462 c -9.31414,-2.54022 -22.86199,-5.08044 -34.71635,-5.50381 l -7.19729,-12.27773 c 20.74513,1.69348 35.13972,3.38696 50.80441,8.04403 l 11.85436,58.84843 6.77392,19.89839 z"
     style="fill:#000000;fill-opacity:1;fill-rule:evenodd;stroke:none;stroke-width:0.42337003;stroke-linecap:butt;stroke-linejoin:bevel" /></svg>