<?xml version="1.0" encoding="UTF-8" standalone="no"?>
<svg
   xmlns:dc="http://purl.org/dc/elements/1.1/"
   xmlns:cc="http://creativecommons.org/ns#"
   xmlns:rdf="http://www.w3.org/1999/02/22-rdf-syntax-ns#"
   xmlns:svg="http://www.w3.org/2000/svg"
   xmlns="http://www.w3.org/2000/svg"
   id="svg8"
   version="1.1"
   viewBox="0 0 600 599.99998"
   height="600mm"
   width="600mm">
  <defs
     id="defs2" />
  <metadata
     id="metadata5">
    <rdf:RDF>
      <cc:Work
         rdf:about="">
        <dc:format>image/svg+xml</dc:format>
        <dc:type
           rdf:resource="http://purl.org/dc/dcmitype/StillImage" />
        <dc:title></dc:title>
      </cc:Work>
    </rdf:RDF>
  </metadata>
  <g
     transform="translate(-6896.3228,-4355.1351)"
     id="layer1">
    <path
       d="m 7458.2227,4955.1351 c 20.9565,0 38.1001,-17.1448 38.1001,-38.1015 v -523.7985 c 0,-20.9535 -17.1436,-38.1 -38.1001,-38.1 h -523.7998 c -20.9549,0 -38.1001,17.1465 -38.1001,38.1 v 523.8001 c 0,20.9551 17.1452,38.0983 38.1001,38.0983 z"
       style="fill:#ffffff;fill-opacity:1;fill-rule:evenodd;stroke:#000000;stroke-width:1;stroke-miterlimit:4;stroke-dasharray:none"
       id="path1048" />
    <path
       d="m 7471.3708,4917.0532 c 0,7.2332 -5.8661,13.0991 -13.1009,13.0991 h -523.7998 c -7.2332,0 -13.0992,-5.8675 -13.0992,-13.1023 v -523.7969 c 0,-7.2348 5.866,-13.1008 13.0992,-13.1008 h 523.7998 c 7.2348,0 13.1009,5.866 13.1009,13.1008 z m -13.0869,-551.8912 h -523.8122 c -15.5141,0 -28.0941,12.5788 -28.0941,28.0923 v 523.8101 c 0,15.5139 12.58,28.0967 28.0941,28.0967 h 523.8122 c 15.5141,0 28.0941,-12.5828 28.0941,-28.0967 v -523.8101 c 0,-15.5135 -12.58,-28.0923 -28.0941,-28.0923"
       style="fill:#000000;fill-opacity:1;fill-rule:evenodd;stroke:none;stroke-width:1.41111398"
       id="path1056" />
    <path
       d="m 7288.2096,4825.9992 -220.9537,-315.6489 c 34.2889,-30.5883 79.5038,-49.1884 129.0691,-49.1884 107.1262,0 193.9716,86.8468 193.9716,193.9728 0,73.8801 -41.3105,138.1096 -102.087,170.8645 m -285.8594,-170.8645 c 0,-43.9732 14.6404,-84.5211 39.3025,-117.0572 l 211.9224,302.4376 c -18.0976,5.584 -37.3209,8.5936 -57.2501,8.5936 -107.129,0 -193.9748,-86.8468 -193.9748,-193.974 m 193.9748,-250.938 c -138.5883,0 -250.9397,112.3513 -250.9397,250.938 0,138.5868 112.3514,250.938 250.9397,250.938 138.5855,0 250.9353,-112.3512 250.9353,-250.938 0,-138.5867 -112.3498,-250.938 -250.9353,-250.938"
       style="fill:#c0111e;fill-opacity:1;fill-rule:evenodd;stroke:none;stroke-width:1.41111398"
       id="path1060" />
    <path
       d="m 7025.3751,4694.8927 v 5.0688 h 124.4982 l -3.5504,-5.0688 h -95.473 v -20.6387 h 81.0218 l -30.7493,-43.9141 h -11.5756 c 0,0 -6.1468,-7.3631 -16.4508,-9.0379 4.3168,-1.6396 7.39,-5.804 7.39,-10.6949 0,-6.3248 -5.1264,-11.4512 -11.4497,-11.4512 -6.3248,0 -11.4496,5.1264 -11.4496,11.4512 0,4.8641 3.0392,9.0113 7.3192,10.6693 -10.4436,1.5904 -16.96,8.7972 -16.96,8.7972 l -7.9136,-0.9344 5.7756,-30.7425 c 0,0 12.23,-2.5624 30.1261,-4.03 l -4.2236,-6.0328 c -18.7905,1.62 -30.4757,4.294 -30.4757,4.294 l -6.7452,34.3437 -6.978,9.6027 v 23.7744 h -3.6052 v 13.9053 h 6.7448 v 20.6387 z"
       style="fill:#000000;fill-opacity:1;fill-rule:evenodd;stroke:none;stroke-width:1.41111398"
       id="path1064" />
    <path
       d="m 7132.2549,4595.2535 c 13.318,1.5112 21.9652,3.3768 21.9652,3.3768 l 6.4772,31.7092 h -3.8748 l 14.4596,20.65 v -13.448 l -4.3408,-8.6695 -7.4448,-35.5109 c 0,0 -12.5124,-3.1028 -32.0196,-4.9304 z"
       style="fill:#000000;fill-opacity:1;fill-rule:evenodd;stroke:none;stroke-width:1.41111398"
       id="path1068" />
    <path
       d="m 7284.908,4630.3399 c 0,0 -6.1484,-7.3631 -16.4509,-9.0379 4.3153,-1.64 7.3901,-5.804 7.3901,-10.6949 0,-6.3248 -5.1281,-11.4512 -11.4497,-11.4512 -6.3248,0 -11.4512,5.1264 -11.4512,11.4512 0,4.8641 3.0408,9.0113 7.3208,10.6693 -10.4452,1.5904 -16.9616,8.7968 -16.9616,8.7968 l -7.912,-0.934 5.7756,-30.7425 c 0,0 24.0212,-5.0348 54.0077,-5.0348 29.9861,0 54.4025,5.2676 54.4025,5.2676 l 6.4784,31.7104 z m 58.8941,64.5204 h -97.591 v -20.6067 h 97.591 z m 26.2116,-20.3735 v -13.2041 h -3.3728 v -23.7404 l -4.3392,-8.6699 -7.4476,-35.5105 c 0,0 -25.1064,-6.236 -59.6773,-6.236 -34.5725,0 -58.5813,5.502 -58.5813,5.502 l -6.7448,34.3437 -6.978,9.6027 v 23.7744 h -3.6069 v 13.9049 h 6.7465 v 20.6067 h -24.0117 l 3.5716,5.1008 h 162.6195 v -5.1008 h -4.9232 v -20.3735 z"
       style="fill:#000000;fill-opacity:1;fill-rule:evenodd;stroke:none;stroke-width:1.41111398"
       id="path1072" />
  </g>
</svg>
