<?xml version="1.0" encoding="UTF-8"?>
<svg width="24in" height="30in" viewBox="0 0 1728 2160" xmlns="http://www.w3.org/2000/svg">
<defs>
<style>.cls-1{fill:#fff;}</style>
</defs>
<rect class="cls-1" width="1728" height="2160" rx="108"/>
<path transform="translate(-1e-4)" d="M1620,2.2536A105.866,105.866,0,0,1,1725.7465,108V2052A105.866,105.866,0,0,1,1620,2157.7463H108A105.866,105.866,0,0,1,2.2537,2052V108A105.866,105.866,0,0,1,108,2.2536ZM1620,0H108A108,108,0,0,0,0,108V2052a108,108,0,0,0,108,108H1620a108,108,0,0,0,108-108V108A108,108,0,0,0,1620,0Z"/>
<path transform="translate(-1e-4)" d="m1620 27h-1512a81.096 81.096 0 0 0-81 81v1944a81.096 81.096 0 0 0 81 81h1512a81.096 81.096 0 0 0 81-81v-1944a81.096 81.096 0 0 0-81-81zm36 2025a36.041 36.041 0 0 1-36 36h-1512a36.041 36.041 0 0 1-36-36v-1944a36.041 36.041 0 0 1 36-36h1512a36.041 36.041 0 0 1 36 36z"/>
<path transform="translate(-1e-4)" d="m632.02 431.94c0 15.498 3.2939 223.56-153.47 223.56s-153.47-208.06-153.47-223.56-3.294-223.51 153.47-223.51 153.47 208.01 153.47 223.51zm-152.71 153.9c46.548 0 84.349-44.119 84.349-153.9s-37.8-153.9-84.349-153.9-84.348 44.064-84.348 153.9c0 109.78 37.8 153.9 84.348 153.9z"/>
<path transform="translate(-1e-4)" d="m793.08 355.43v292.52h-68.149v-432h68.149l157.68 275.89v-275.89h68.256v432h-60.643z"/>
<path transform="translate(-1e-4)" d="m1120.6 215.94h254.34v68.202h-186.19v106.11h125.66v69.714h-125.66v118.26h199.8v69.714h-267.95z"/>
<path transform="translate(-1e-4)" d="m596.66 1214.9-68.472-277.4-66.906 277.4h-60.858l-63.828-432h69.93l33.48 227.39 54.702-227.39h66.96l56.214 227.39 33.48-227.39h69.93l-63.882 432z"/>
<path transform="translate(-1e-4)" d="m999.9 1093.7h-135.65l-42.713 121.28h-73.171l149.42-432h68.634l149.36 432h-73.17zm-111.24-69.714h86.886l-42.714-121.23z"/>
<path transform="translate(-1e-4)" d="m1309.8 1214.9h-68.58v-187.97l-152.33-244.03h82.296l103.57 166.75 105.14-166.75h80.73l-150.82 244.03z"/>
<rect x="267.41" y="1548" width="838.8" height="216"/>
<path transform="translate(-1e-4)" d="m1097.7 1375c-7-4.0069-14-7.0121-23-7.0121a40.153 40.153 0 0 0-40 40.07 32.041 32.041 0 0 0 3 14.024l68.538 233.91-68.539 232.9a32.043 32.043 0 0 0-3 14.024c0 22.038 18 41.071 40 41.071 9 0 16-3.0053 23-7.0121l409-280.99z"/>
</svg>
