<?xml version="1.0" encoding="UTF-8" standalone="no"?>
<svg
   xml:space="preserve"
   style="overflow:visible"
   viewBox="0 0 512 512"
   height="512"
   width="512"
   id="Layer_1"
   version="1.1"
   sodipodi:docname="Canadian_Playground_Zone_(old).svg"
   inkscape:version="1.1 (c68e22c387, 2021-05-23)"
   xmlns:inkscape="http://www.inkscape.org/namespaces/inkscape"
   xmlns:sodipodi="http://sodipodi.sourceforge.net/DTD/sodipodi-0.dtd"
   xmlns="http://www.w3.org/2000/svg"
   xmlns:svg="http://www.w3.org/2000/svg"
   xmlns:rdf="http://www.w3.org/1999/02/22-rdf-syntax-ns#"
   xmlns:cc="http://creativecommons.org/ns#"
   xmlns:dc="http://purl.org/dc/elements/1.1/"><sodipodi:namedview
   id="namedview11"
   pagecolor="#ffffff"
   bordercolor="#666666"
   borderopacity="1.0"
   inkscape:pageshadow="2"
   inkscape:pageopacity="0.0"
   inkscape:pagecheckerboard="0"
   showgrid="false"
   inkscape:zoom="1.0400005"
   inkscape:cx="267.78833"
   inkscape:cy="251.44218"
   inkscape:window-width="1366"
   inkscape:window-height="705"
   inkscape:window-x="-8"
   inkscape:window-y="-8"
   inkscape:window-maximized="1"
   inkscape:current-layer="Layer_1" /><metadata
   id="metadata4280"><rdf:RDF><cc:Work
       rdf:about=""><dc:format>image/svg+xml</dc:format><dc:type
         rdf:resource="http://purl.org/dc/dcmitype/StillImage" /></cc:Work></rdf:RDF></metadata><defs
   id="defs4278" />
<path
   id="path4265"
   d="m 6.9979417,239.11632 c -9.3307516,9.33 -9.3307516,24.43701 0,33.76701 L 239.11973,505.00537 c 9.32001,9.321 24.43726,9.3315 33.76826,0 L 505.01003,272.88483 c 9.32,-9.321 9.32,-24.44851 0,-33.76851 L 272.88799,6.9942804 c -9.331,-9.3315017 -24.44825,-9.3197517 -33.76826,0 z"
   style="clip-rule:evenodd;fill:#ffcd00;fill-opacity:1;fill-rule:evenodd;stroke-width:0.512" />
<path
   id="path4267"
   d="M 11.421443,243.53907 243.54398,11.417781 c 6.87651,-6.877251 18.03201,-6.888751 24.92001,0 L 500.58603,243.53907 c 6.8775,6.87775 6.8775,18.04376 0,24.92176 L 268.46399,500.58237 c -6.888,6.8885 -18.0435,6.878 -24.92001,0 L 11.421443,268.46083 c -6.8887518,-6.8885 -6.8887518,-18.03201 0,-24.92176 m 6.653001,6.65225 c -3.219251,3.2195 -3.219251,8.39751 0,11.61701 L 250.19624,493.93037 c 3.20775,3.2075 8.40775,3.2075 11.61575,0 L 493.93353,261.80833 c 3.2075,-3.2075 3.2075,-8.40801 0,-11.61551 L 261.81199,18.070032 c -3.208,-3.2075 -8.408,-3.2075 -11.61575,0"
   style="clip-rule:evenodd;fill-rule:evenodd;stroke-width:0.512" />




<path
   id="path869"
   style="fill:#000000;fill-opacity:1;stroke:none;stroke-width:0.497429px;stroke-linecap:butt;stroke-linejoin:miter;stroke-opacity:1"
   d="m 228.97596,136.0592 c -3.42312,0.0409 -8.56919,1.21304 -15.45733,5.73709 -8.36328,7.96193 -5.22703,14.59644 -5.22703,14.59644 1.5206,3.50704 6.89056,6.44527 5.65507,10.71058 0,0 -0.55474,1.80331 0.0837,3.00971 0.23521,0.63673 2.96503,0.96017 3.53625,1.73094 0,0 0.68089,2.66988 2.05851,3.74225 1.42557,2.93833 7.57929,3.17534 9.09987,4.31276 0,0 -2.51881,2.89181 -2.56633,5.4984 -0.33263,1.04264 -4.1811,2.98559 -5.9868,8.24615 -1.80571,2.5592 -4.6218,10.98312 -6.42751,15.24845 -2.28089,6.16103 -5.02459,11.14857 -8.6835,12.8073 -2.94615,0.56871 -7.22244,4.26514 -18.95954,3.93338 l -0.2938,1.59898 c -1.73307,-0.844 -5.53457,-2.40477 -9.11738,-1.90849 -2.6053,0.423 -2.00978,4.01032 -1.86298,4.74356 -1.86452,0.18793 -5.72319,0.84134 -6.40318,3.05435 -1.18797,3.12789 2.23356,4.26578 3.75416,8.43631 4.23849,3.66648 14.49853,-0.47969 17.84857,-4.11288 l 1.15864,2.35868 h 0.002 c 0,0 11.67696,-1.86179 16.6189,-4.89491 12.21211,-8.7719 20.57382,-16.91562 23.92195,-21.75397 3.08196,4.88011 10.25736,17.72569 2.85721,22.18475 l -25.50377,13.30892 c -0.0137,1.37318 0.27008,2.75829 0.66152,4.05274 -4.06161,2.25799 -7.72305,8.55364 -8.85667,10.14977 -2.28089,2.18006 -9.14098,18.25941 -11.9921,22.33516 0,0 -6.40421,10.24955 -12.38514,11.2549 -6.18253,0.8713 -8.35254,-2.21756 -15.40869,-2.61967 -4.83851,0.60317 -5.57865,1.8769 -2.62178,6.63554 2.01604,3.15008 5.54514,4.076 5.54514,4.07602 1.34403,0.73722 7.62818,2.60211 9.17381,3.54042 2.35205,1.1394 5.17605,3.32835 6.38567,3.86452 0,0 3.582,2.99286 6.05297,-2.03074 0.80779,-1.23221 2.90974,-3.848 2.90974,-3.848 3.72672,-9.48418 15.89762,-13.17567 18.84377,-17.06185 l 17.66858,-24.08935 2.05171,4.27975 c 0,0 7.91616,-1.7405 17.18995,-8.71089 0,0 8.99101,-6.09727 16.65196,-5.8962 5.57774,0.26809 9.36031,6.33604 13.4932,9.92176 0,0 12.78803,11.86541 13.09043,11.66434 0.8064,-0.26809 2.79173,-2.12613 3.49734,-0.98675 0,0 6.08398,6.62095 13.07294,8.36357 5.91368,1.74258 26.80078,1.16125 40.37546,3.84218 2.566,0.85306 22.99934,16.87201 29.65194,14.21804 l 1.14014,-1.99095 c -0.47518,-8.43585 -13.39995,-23.41096 -15.3007,-25.49623 -3.62886,-4.62457 -7.04797,2.20293 -13.23052,1.8008 -5.77932,-1.1394 -8.52566,-4.43188 -13.90178,-4.63295 l -25.51837,-7.12066 2.75605,-2.93791 c -2.62087,-4.95971 -13.94778,-14.32718 -16.29984,-17.34322 -5.08447,-7.63019 -8.50545,-14.12587 -8.50545,-14.12587 l 0.24904,-0.91591 c -6.45804,-12.65175 -6.207,-12.71686 -6.91978,-14.18603 -1.17741,-2.47351 -6.72195,-11.93554 -6.99077,-13.64462 -0.23675,-0.66903 -0.35081,-2.13076 -0.41929,-3.39587 l 2.77259,-1.26909 24.37723,7.81925 7.55502,15.87717 h 0.52242 v 1.08957 l 4.14816,1.69989 c -0.23808,1.86948 -1.13019,4.2205 -0.68293,5.50907 1.27683,2.71444 4.80488,4.18915 6.04809,5.83121 l 1.54486,1.74257 c 0,0 4.82796,-0.34739 6.91879,-2.81178 l 1.65771,-2.40914 c 0.42765,-2.70137 -0.81233,-4.77945 -0.81233,-4.77945 -0.69253,-1.41974 -4.81735,-4.72352 -6.86721,-6.91108 1.76111,-2.08214 -0.17609,-5.34996 -0.17609,-5.34996 l -5.67084,-9.8849 c 0,0 -1.82801,-1.155 -1.54291,-3.42984 -0.73656,-1.54026 -1.64507,-1.34285 -1.64507,-3.19115 -2.82248,-1.34046 -2.9506,-4.12745 -2.9506,-4.12745 0,0 -3.4608,-2.31253 -4.36801,-3.21734 -2.08327,-0.73726 -6.04748,-3.4178 -8.33231,-4.62422 -6.27254,-2.55919 -6.42361,-3.52492 -6.42361,-3.52492 -4.18164,-0.85305 -15.15503,-8.7673 -21.9977,-6.96639 0,0 -1.9959,-1.18407 -3.42146,-0.9945 -4.46675,-0.28436 -15.91819,-0.14252 -19.52962,-4.40784 -0.67201,-2.27879 3.28392,-11.39627 1.87271,-19.37202 -1.47845,-6.97039 -6.2578,-11.3289 -10.08826,-12.80341 0,0 -1.70077,-1.08971 -5.12393,-1.04884 z" /><path
   id="path3413"
   style="fill:#000000;fill-opacity:1;stroke-width:0.0483444;stroke-linecap:square"
   d="m 164.22595,262.59406 a 12.874135,12.874174 0 0 1 -12.87414,12.87418 12.874135,12.874174 0 0 1 -12.87413,-12.87418 12.874135,12.874174 0 0 1 12.87413,-12.87418 12.874135,12.874174 0 0 1 12.87414,12.87418 z" /><path
   id="rect3354"
   style="fill:#000000;fill-opacity:1;stroke-width:10.3759;stroke-linecap:round;stroke-linejoin:round"
   d="m 139.56197,330.92609 c -2.82393,-4e-5 -5.11315,2.29142 -5.11301,5.118 4.2e-4,2.8262 2.28948,5.11704 5.11301,5.117 77.62534,0 155.25069,0 232.87604,0 2.82353,4e-5 5.11259,-2.2908 5.113,-5.117 1.4e-4,-2.82658 -2.28908,-5.11804 -5.113,-5.118 -77.62535,0 -155.2507,0 -232.87604,0 z"
   sodipodi:nodetypes="ccccccc" /></svg>
