<?xml version="1.0" encoding="UTF-8" standalone="no"?>
<!-- Created with Inkscape (http://www.inkscape.org/) -->

<svg
   width="602mm"
   height="602mm"
   viewBox="0 0 602 602"
   version="1.1"
   id="svg30"
   inkscape:version="1.1.2 (b8e25be833, 2022-02-05)"
   sodipodi:docname="MUTCDC_WC-1_(old).svg"
   xmlns:inkscape="http://www.inkscape.org/namespaces/inkscape"
   xmlns:sodipodi="http://sodipodi.sourceforge.net/DTD/sodipodi-0.dtd"
   xmlns="http://www.w3.org/2000/svg"
   xmlns:svg="http://www.w3.org/2000/svg"
   xmlns:rdf="http://www.w3.org/1999/02/22-rdf-syntax-ns#"
   xmlns:cc="http://creativecommons.org/ns#"
   xmlns:dc="http://purl.org/dc/elements/1.1/">
  <defs
     id="defs24" />
  <sodipodi:namedview
     id="base"
     pagecolor="#ffffff"
     bordercolor="#666666"
     borderopacity="1.0"
     inkscape:pageopacity="0.0"
     inkscape:pageshadow="2"
     inkscape:zoom="0.12374369"
     inkscape:cx="998.03069"
     inkscape:cy="1135.4114"
     inkscape:document-units="mm"
     inkscape:current-layer="layer1"
     showgrid="false"
     inkscape:snap-global="false"
     inkscape:window-width="1920"
     inkscape:window-height="1001"
     inkscape:window-x="-9"
     inkscape:window-y="-9"
     inkscape:window-maximized="1"
     inkscape:pagecheckerboard="0"
     inkscape:snap-intersection-paths="false"
     inkscape:snap-smooth-nodes="false"
     inkscape:snap-bbox="false"
     inkscape:snap-bbox-edge-midpoints="false"
     inkscape:bbox-nodes="false"
     showguides="true"
     inkscape:guide-bbox="true" />
  <metadata
     id="metadata27">
    <rdf:RDF>
      <cc:Work
         rdf:about="">
        <dc:format>image/svg+xml</dc:format>
        <dc:type
           rdf:resource="http://purl.org/dc/dcmitype/StillImage" />
      </cc:Work>
    </rdf:RDF>
  </metadata>
  <g
     inkscape:label="Layer 1"
     inkscape:groupmode="layer"
     id="layer1"
     transform="translate(0,305)">
    <path
       d="M 14.133354,-33.604566 270.94167,-290.40812 C 278.43345,-298.84994 289.54173,-304 300.9418,-304 c 11.40812,0 22.64995,4.99182 30.15811,13.59188 L 587.87496,-33.604566 C 596.15843,-26.112682 601,-15.171051 601,-3.9207532 V 256.00776 C 601,278.03314 583.03339,296 561.00832,296 H 41 C 18.974929,296 1,278.03314 1,256.00776 V -3.9207532 C 1,-15.171051 5.8584567,-26.112682 14.133354,-33.604566"
       style="display:inline;fill:#ffffff;fill-opacity:1;fill-rule:nonzero;stroke:#000000;stroke-width:1;stroke-miterlimit:4;stroke-dasharray:none;stroke-opacity:1"
       id="path3487"
       inkscape:connector-curvature="0"
       inkscape:label="path11" />
    <path
       d="m 278.45814,-283.22566 1.32536,-1.41608 c 3.27483,-3.22525 6.90822,-5.53356 11.2,-7.16684 0.75086,-0.26709 1.49165,-0.49891 2.25008,-0.72568 4.99174,-1.31782 9.70834,-1.37577 14.73335,-0.22677 l 1.53449,0.42582 c 5.1583,1.61766 9.5166,4.25027 13.24145,8.18355 l 257.91672,258.020331 1.34047,1.282538 c 3.12492,3.233304 5.34174,6.816851 6.8916,11.03335 0.84913,2.499562 1.37574,4.9419263 1.62519,7.5669706 0.0504,0.7987511 0.0756,1.5823841 0.0756,2.3912142 l -0.0252,261.3702962 c -0.12599,1.51688 -0.29985,2.94984 -0.56693,4.42488 -0.3326,1.44884 -0.72567,2.80017 -1.19181,4.20013 -0.90709,2.3005 -1.9326,4.30015 -3.26678,6.36682 -0.84157,1.18427 -1.70078,2.27531 -2.64163,3.3666 -1.69071,1.77389 -3.39175,3.24187 -5.38331,4.65846 -1.22457,0.79119 -2.43402,1.47404 -3.71679,2.14932 -2.27527,1.02552 -4.4165,1.74868 -6.8417,2.30806 -1.49165,0.27465 -2.91653,0.45859 -4.43313,0.56694 l -521.383564,0.0252 c -1.582362,-0.0252 -3.066456,-0.12599 -4.633196,-0.34269 -1.466457,-0.257 -2.850016,-0.56694 -4.274898,-0.97512 -2.340788,-0.79875 -4.391811,-1.72602 -6.533543,-2.96672 -1.217008,-0.77607 -2.350867,-1.59247 -3.491528,-2.48445 -1.849449,-1.60002 -3.400063,-3.22499 -4.908346,-5.15006 -0.841575,-1.18427 -1.592441,-2.35845 -2.315591,-3.60849 -1.133858,-2.21735 -1.957795,-4.2999 -2.64189,-6.69161 -0.332598,-1.46648 -0.582047,-2.86669 -0.776063,-4.34173 l -0.151181,-3.15848 0.0083,-260.5702814 0.07559,-1.5496278 c 0.491338,-5.3002308 2.166929,-10.0168948 5.100094,-14.4503418 1.184252,-1.70837 2.466772,-3.233305 3.949858,-4.691718 z"
       style="display:inline;fill:#15559b;fill-opacity:1;fill-rule:evenodd;stroke:none;stroke-width:8.33339"
       id="path3495"
       inkscape:connector-curvature="0"
       inkscape:label="path13" />
    <path
       id="path869"
       style="display:inline;fill:#ffffff;fill-opacity:1;stroke:none;stroke-width:1.38189px;stroke-linecap:butt;stroke-linejoin:miter;stroke-opacity:1"
       d="m 372.97723,-173.18495 c -5.17137,-0.003 -9.17435,2.583 -9.17435,2.583 -2.90006,0.65912 -6.13609,0.0409 -9.16845,0.43462 -5.2732,3.42775 -11.27744,1.93048 -15.10085,2.98517 0,0 -11.46703,6.5713 -9.9754,14.40187 0.74559,4.84754 7.17945,2.84177 7.17945,5.45197 0,0 -3.07737,4.66278 -1.67893,11.65429 0.18639,1.49158 2.89051,1.2119 2.89051,1.2119 l 0.27732,10.1618 c -4.28848,2.51694 -7.64362,8.76155 -0.55874,10.62597 l 0.55874,5.40609 c 1.49163,0.65253 0.37279,3.16962 0.9338,4.66119 l 2.42362,2.05123 c 0,0 -3.72839,15.660772 9.13616,9.881113 6.10199,-0.217767 7.48859,4.881641 7.58952,9.157674 -4.36804,5.437182 -13.61786,7.806609 -20.31814,24.104854 -4.74585,7.382676 -10.6778,34.802718 -22.01572,45.613129 C 303.58357,-1.9088325 287.99354,5.6909238 279.9603,9.2113253 278.51185,1.7125363 259.32346,-27.408211 250.42779,-30.76903 l 0.2455,-4.599132 c 1.84396,0.330509 4.19074,0.55759 5.14727,-0.186399 0,0 2.79504,-3.170024 5.9647,-4.288668 0,0 11.00104,2.052087 8.76336,-13.049675 -0.74557,-11.000141 -5.77829,-15.103679 -5.77829,-15.103679 0,0 3.35423,-16.779656 1.48981,-21.627102 -3.16965,-7.644086 -18.45873,-20.881615 -27.96723,-21.440895 -4.47443,-0.18685 -24.0479,8.94986 -24.0479,8.94986 0,0 -16.96755,7.830337 -5.96787,14.542261 -2.79641,16.220416 3.7302,21.535357 3.7302,21.535357 -0.1864,2.423698 -5.59508,5.497611 -5.59508,8.107801 0.7315,1.158301 2.33587,2.023855 4.12937,2.696297 -0.5401,3.228075 -0.67648,8.83852 4.46443,10.272414 0.0636,2.210665 0.75332,4.184052 1.52208,7.260373 1.49163,5.9661 11.79073,0.09499 12.90957,9.230543 0,6.68523 -12.75953,5.383004 -8.22919,16.050986 -7.14854,6.7805616 -8.01642,20.8390497 -8.01642,20.8390497 -0.55919,10.4407153 -8.32102,13.2089403 -8.32102,13.2089403 -9.8813,1.491535 -16.8598,9.083605 -20.029,10.202208 -6.40295,1.785594 -13.5574,3.346278 -21.14693,6.304847 -1.18657,0.329607 -2.59183,-1.810228 -8.55288,-0.231406 -9.50896,2.796681 -5.50098,9.693816 -8.76383,10.625978 2.05083,9.881436 14.16978,9.694811 14.16978,9.694811 5.40688,-1.584602 5.68556,-4.009079 9.22801,-5.500573 3.35559,-0.558871 6.61844,0.467998 10.90648,-0.464308 5.40687,-1.491535 5.1741,-8.018781 5.1741,-8.018781 3.54198,3.542443 28.0145,-8.576566 31.37055,2.609912 4.84722,10.440768 -13.61104,29.273423 -13.61104,29.273423 -24.23748,27.966317 -23.86514,50.711027 -30.57724,48.846657 -0.20913,9.08574 8.03597,14.56071 20.21039,17.51924 -1.57572,9.09592 -0.21366,18.64157 -1.79759,24.06971 0,0 -5.74192,21.41907 -12.86091,40.13957 -8.96478,12.91979 -23.67283,11.26563 -23.67283,11.26563 -3.60109,-0.90893 -9.724,-1.13116 -8.18873,3.89742 0,0 2.97872,9.23818 10.13453,7.8784 2.7664,0.11956 5.69464,8.13353 13.82154,2.28604 1.35114,-0.74427 5.18501,1.17402 5.18501,1.17402 0.0683,3.60237 2.00262,4.02421 2.00262,4.02421 2.62228,0.35507 7.85913,0.87407 7.58681,-4.02421 0,0 1.84623,0.15685 2.27539,-2.54513 0,0 0.17731,-7.01338 0.87698,-10.55582 1.07701,-3.95839 2.21858,-8.21059 3.0419,-10.95526 4.74585,-11.60143 20.43363,-24.586 22.80677,-39.35153 1.58664,-7.93321 -1.88533,-15.38381 1.9649,-24.52043 8.36648,0.27187 17.12348,-0.0827 25.60272,-0.79618 1.34523,5.73201 5.67918,20.2324 16.57702,28.7741 2.16038,5.01929 6.23475,11.48804 9.1739,18.74727 2.93916,7.25925 4.74312,15.30889 5.34959,17.14677 4.60308,15.12391 -11.99986,18.5772 -11.99986,18.57729 0,0 -2.05673,0.57514 -2.2213,2.38319 l -0.40917,5.09573 c 0,0 -0.16366,2.87837 2.05673,2.79617 h 11.26018 c 0,0 9.22982,-0.56428 11.1738,-5.65441 l 4.10527,-1.33064 c 0.58102,0.46535 0.85743,3.72538 2.31042,4.13223 2.20856,0.40689 7.83138,-1.09592 8.41285,-2.72335 0.9879,-2.67356 -2.2404,-6.49646 -2.2404,-6.49646 1.1893,-2.12034 -3.33332,-4.93075 -4.7963,-8.43173 -0.5151,-2.06778 -0.93381,-4.22934 -1.40617,-6.38313 -1.13565,-5.17878 -3.01371,-11.37092 -4.04299,-17.01724 -0.79104,-4.21871 -0.33642,-12.95802 -3.76521,-23.24107 -5.12863,-14.40905 -14.48711,-18.67945 -13.74607,-29.9158 10.59733,-2.12943 18.50328,-4.7242 20.73413,-7.13354 2.42361,-5.77966 -4.51126,-9.16877 -6.00288,-16.06712 -1.11838,-3.16956 0.15003,-13.08182 -3.76522,-15.69201 -1.25885,-2.073728 -2.75776,-4.972979 -4.11572,-7.724506 -0.28187,-1.32396 0.22731,-2.403151 1.85669,-2.836677 h 24.0238 c 0.55965,-15.101866 -0.74649,-18.140948 -1.49254,-24.479981 -0.55919,-6.339073 5.78103,-18.32747 1.49254,-19.632616 h -16.86571 c 0.89197,-5.770703 1.37569,-10.557464 1.61119,-14.671783 0.87561,-2.921883 3.24739,-8.654302 8.53151,-9.241364 5.47688,-1.190662 26.43651,-1.204024 44.04235,-26.6392228 1.13656,8.87044 4.32167,30.3073308 8.9525,31.7808198 9.49214,7.382717 4.48307,17.664988 4.48307,17.664988 -21.09329,65.126182 -34.01194,80.156152 -34.53885,89.911942 -0.26368,3.95506 1.31659,7.02079 2.73366,15.55711 1.41753,8.5362 1.35206,19.11444 3.85705,29.39758 0.54191,3.43275 -0.14548,11.83555 -0.38189,18.50973 -2.60682,0.16821 -4.14027,1.40074 -4.14027,1.40074 l 3.35741,17.89714 7.08489,3.35755 1.3657,0.0136 c -2.55636,2.88751 -8.43968,2.99589 -8.43968,2.99589 -4.19711,0.41189 -5.51189,5.26593 -2.13765,6.08894 l 4.52626,5.76238 c 3.04508,1.72822 9.79219,-0.49408 10.45049,-1.15247 0,0 3.54017,-4.11605 5.43322,-4.77453 0,0 0.74059,4.03208 5.51416,3.70307 1.72804,-0.16457 7.28312,1.60597 6.7071,-3.74358 l -0.59647,-8.74204 5.3305,-2.57219 -0.19095,-16.0348 -1.9567,-0.18639 c -0.79106,-6.06444 1.10928,-10.68303 1.10928,-20.17508 -0.52737,-8.17376 -1.52845,-28.3517 0.0545,-40.74417 0.9238,-8.31611 9.32439,-18.19436 13.77563,-28.1695 0.89925,5.79326 -1.24113,19.58302 7.16854,42.11524 21.81387,52.0174 24.32022,44.68888 25.32767,47.78861 1.11838,4.661 -3.8084,12.4713 10.54778,20.30187 l 0.66103,-0.18095 c -0.50055,4.39933 -5.41415,5.72189 -5.41415,5.72189 -2.3936,-0.6298 -8.4124,4.19501 -1.32523,6.81765 0,0 8.24055,3.16593 18.88516,-3.38455 0.88152,-0.94476 1.34479,-3.76139 1.47072,-4.76911 0.25004,-1.79514 2.59546,-2.38479 3.59246,-2.67203 1.70075,-0.56673 3.88659,3.6271 9.30346,-0.46694 0,0 4.70993,-6.77747 0.77468,-8.71236 l 1.84624,-11.33856 -12.46403,-14.12927 c -8.94931,-17.15268 -10.22726,-40.79123 -19.17658,-42.09637 0,0 -0.99517,-24.95943 0.68285,-30.55274 0,0 6.65436,-13.65592 5.33595,-28.685025 -0.36825,-4.310362 -2.87188,-8.420408 -2.92053,-11.762228 15.11905,-0.06907 36.75334,1.258909 39.61612,0.666663 -4.47443,-39.20299 3.57836,-48.185987 0.94199,-50.95457 -0.54374,-0.906113 -5.73466,-0.04089 -22.30442,0.340059 -0.0455,-1.766001 0.0455,-4.0589 0.53146,-6.601765 2.10947,-9.228401 10.81101,-12.6573337 8.70155,-31.1141462 -1.05474,-7.6464028 -21.09465,-35.0686688 -23.4678,-47.1975048 -2.90051,-10.019457 -12.78681,-24.123956 -24.38796,-26.760645 0,0 1.90716,-12.479983 -5.21183,-13.270988 0,0 -6.44296,-0.437809 -4.86086,-9.92963 2.24085,-11.86514 14.51667,-19.5516 16.75797,-35.76724 0,0 1.48527,-9.04979 0.0455,-12.47754 0,0 -0.0682,-6.36212 -6.52615,-9.1307 -1.84579,-2.37305 -4.80131,-1.85961 -6.3834,-3.5735 -1.44981,-0.79101 -1.37616,-3.44225 -4.80404,-4.62877 0,0 -4.78539,-1.17448 -9.13617,-1.30632 -0.35461,-0.0273 -0.70239,-0.0409 -1.047,-0.0409 z m 44.28512,162.38837 c 1.97626,1.4353899 5.42551,4.3091722 5.23593,6.9634149 -2.64137,15.4574581 -3.40833,22.0545401 -5.09545,32.5904951 -0.9538,-0.001 -2.18948,-0.03187 -3.18784,-0.04089 -2.14128,-2.250937 -5.03634,-6.187228 -4.73947,-10.823045 0.28187,-4.101735 -3.18284,-3.777857 -3.13601,-5.036305 0.1864,-2.3306 2.65637,-0.924026 5.54644,-4.8393607 3.38423,-3.0709109 4.80585,-12.7767574 5.3764,-18.8201533 z M 265.1463,27.998881 c 6.02562,-0.03187 3.54246,12.476756 1.51982,19.370796 h -1.87624 c -3.06645,-0.210491 -5.6369,-0.7179 -7.81866,-1.462894 2.19948,-4.125601 5.04862,-9.173178 6.653,-17.673134 0.55783,-0.154121 1.06565,-0.232318 1.52208,-0.235044 z"
       inkscape:label="path15" />
  </g>
</svg>
