<svg xmlns="http://www.w3.org/2000/svg" xmlns:xlink="http://www.w3.org/1999/xlink" viewBox="0 0 54 54"><defs><style>.cls-1,.cls-4{fill:none;}.cls-2{clip-path:url(#clip-path);}.cls-3{fill:#ffdf1c;}.cls-4{stroke:#231f20;stroke-width:0.1px;}.cls-5{clip-path:url(#clip-path-2);}.cls-6{fill:#231f20;}.cls-7{fill:#009a66;}.cls-8{fill:#ef3e42;}</style><clipPath id="clip-path"><rect class="cls-1" x="0.94" width="53.06" height="54"/></clipPath><clipPath id="clip-path-2"><rect class="cls-1" x="0.94" width="54" height="54"/></clipPath></defs><title>Asset 7</title><g id="Layer_2" data-name="Layer 2"><g id="Layer_1-2" data-name="Layer 1"><g class="cls-2"><path class="cls-3" d="M25.22,53.21a2.51,2.51,0,0,0,3.55,0L53.21,28.78a2.51,2.51,0,0,0,0-3.56L28.78.79a2.51,2.51,0,0,0-3.55,0L.79,25.22a2.52,2.52,0,0,0,0,3.56Z"/><path class="cls-4" d="M25.22,53.21a2.51,2.51,0,0,0,3.55,0L53.21,28.78a2.51,2.51,0,0,0,0-3.56L28.78.79a2.51,2.51,0,0,0-3.55,0L.79,25.22a2.52,2.52,0,0,0,0,3.56Z"/></g><g class="cls-5"><path class="cls-6" d="M52.75,25.69,28.31,1.26a1.86,1.86,0,0,0-2.62,0L1.26,25.69a1.85,1.85,0,0,0,0,2.62L25.69,52.75a1.85,1.85,0,0,0,2.62,0L52.75,28.31a1.85,1.85,0,0,0,0-2.62M27.61,52a.86.86,0,0,1-1.22,0L2,27.61a.86.86,0,0,1,0-1.22L26.39,2a.86.86,0,0,1,1.22,0L52,26.39a.86.86,0,0,1,0,1.22Z"/><path class="cls-6" d="M20.41,44.14H33.59V9.86H20.41ZM27,31.28A4.28,4.28,0,1,1,31.28,27,4.28,4.28,0,0,1,27,31.28"/><path class="cls-7" d="M27,42a4.28,4.28,0,1,0-4.28-4.28A4.28,4.28,0,0,0,27,42"/><path class="cls-8" d="M27,20.54a4.28,4.28,0,1,0-4.28-4.28A4.28,4.28,0,0,0,27,20.54"/></g></g></g></svg>