<?xml version="1.0" encoding="UTF-8" standalone="no"?>
<!-- Created with Inkscape (http://www.inkscape.org/) -->

<svg
   width="73.078003cm"
   height="64.681cm"
   viewBox="0 0 730.78002 646.80997"
   version="1.1"
   id="svg8"
   inkscape:version="1.1 (c68e22c387, 2021-05-23)"
   sodipodi:docname="Canada Yield (English) (old).svg"
   xmlns:inkscape="http://www.inkscape.org/namespaces/inkscape"
   xmlns:sodipodi="http://sodipodi.sourceforge.net/DTD/sodipodi-0.dtd"
   xmlns="http://www.w3.org/2000/svg"
   xmlns:svg="http://www.w3.org/2000/svg"
   xmlns:rdf="http://www.w3.org/1999/02/22-rdf-syntax-ns#"
   xmlns:cc="http://creativecommons.org/ns#"
   xmlns:dc="http://purl.org/dc/elements/1.1/">
  <defs
     id="defs2" />
  <sodipodi:namedview
     id="base"
     pagecolor="#ffffff"
     bordercolor="#666666"
     borderopacity="1.0"
     inkscape:pageopacity="0.0"
     inkscape:pageshadow="2"
     inkscape:zoom="0.16340226"
     inkscape:cx="1655.4239"
     inkscape:cy="1447.3484"
     inkscape:document-units="cm"
     inkscape:current-layer="layer1"
     showgrid="false"
     units="cm"
     fit-margin-top="0"
     fit-margin-left="0"
     fit-margin-right="0"
     fit-margin-bottom="0"
     inkscape:snap-global="false"
     inkscape:window-width="1366"
     inkscape:window-height="705"
     inkscape:window-x="-8"
     inkscape:window-y="-8"
     inkscape:window-maximized="1"
     inkscape:measure-start="0,0"
     inkscape:measure-end="0,0"
     showborder="true"
     inkscape:pagecheckerboard="0" />
  <metadata
     id="metadata5">
    <rdf:RDF>
      <cc:Work
         rdf:about="">
        <dc:format>image/svg+xml</dc:format>
        <dc:type
           rdf:resource="http://purl.org/dc/dcmitype/StillImage" />
      </cc:Work>
    </rdf:RDF>
  </metadata>
  <g
     inkscape:label="Layer 1"
     inkscape:groupmode="layer"
     id="layer1"
     transform="translate(-58.609766,371.81)">
    <path
       style="fill:#feca2f;fill-opacity:1;stroke:#feca2f;stroke-width:100;stroke-linecap:butt;stroke-linejoin:round;stroke-miterlimit:4;stroke-dasharray:none;stroke-opacity:1"
       d="M 110.6061,-319.80866 423.99968,223.00499 737.39342,-319.80826 Z"
       id="path1110"
       inkscape:connector-curvature="0"
       sodipodi:nodetypes="cccc" />
    <path
       style="fill:none;fill-opacity:1;stroke:#000000;stroke-width:70;stroke-linejoin:round;stroke-miterlimit:4;stroke-dasharray:none;stroke-opacity:1"
       d="m 424.00239,223.00391 -313.39262,-542.81216 626.7851,-4.1e-4 z"
       id="rect5050"
       inkscape:connector-curvature="0"
       sodipodi:nodetypes="cccc" />
    <path
       sodipodi:nodetypes="cccc"
       inkscape:connector-curvature="0"
       id="path1001"
       d="m 423.99982,222.99936 -313.39005,-542.8076 626.77996,-4.1e-4 z"
       style="fill:#feca2f;fill-opacity:1;stroke:#feca2f;stroke-width:40;stroke-linejoin:round;stroke-miterlimit:4;stroke-dasharray:none;stroke-opacity:1" />
    <path
       style="font-style:normal;font-variant:normal;font-weight:normal;font-stretch:normal;letter-spacing:normal;word-spacing:normal;text-anchor:start;fill:#000000;fill-opacity:1;fill-rule:nonzero;stroke:none;stroke-width:3.65856"
       d="m 272.06164,-118.20628 31.60977,-70.2444 v 0 h -20.19512 l -21.07328,45.65888 -21.07318,-45.65888 h -19.31708 l 31.60978,70.2444 v 57.073639 h 18.43911 z"
       id="polygon148"
       inkscape:connector-curvature="0" />
    <path
       style="font-style:normal;font-variant:normal;font-weight:normal;font-stretch:normal;letter-spacing:normal;word-spacing:normal;text-anchor:start;fill:#000000;fill-opacity:1;stroke:none;stroke-width:3.65856"
       d="m 323.86653,-188.45068 v 127.318039 0 h 17.56105 V -188.45068 Z"
       id="polygon150"
       inkscape:connector-curvature="0" />
    <path
       style="font-style:normal;font-variant:normal;font-weight:normal;font-stretch:normal;letter-spacing:normal;word-spacing:normal;text-anchor:start;fill:#000000;fill-opacity:1;fill-rule:nonzero;stroke:none;stroke-width:3.65856"
       d="m 434.5009,-61.132641 v 0 -17.561146 h -45.65861 v -42.146663 h 26.34153 v -17.56104 h -26.34153 v -32.48804 h 41.26841 v -17.56115 h -59.70741 v 127.318039 z"
       id="polygon152"
       inkscape:connector-curvature="0" />
    <path
       style="font-style:normal;font-variant:normal;font-weight:normal;font-stretch:normal;letter-spacing:normal;word-spacing:normal;text-anchor:start;fill:#000000;fill-opacity:1;fill-rule:nonzero;stroke:none;stroke-width:3.65856"
       d="m 476.64735,-188.45068 h -18.43911 v 127.318039 h 64.97577 v 0 -16.646526 h -46.53666 z"
       id="polygon154"
       inkscape:connector-curvature="0" />
    <path
       id="path156"
       d="m 541.66913,-188.46324 v 127.318638 h 35.94538 c 7.02466,0 13.17076,-1.701212 17.56164,-5.214348 12.2921,-9.622387 18.47618,-29.012771 18.47618,-58.90317 l -0.0898,-1.82933 v -1.82922 l -0.0897,-1.82934 -0.0898,-2.01231 -0.18327,-1.92067 -0.18328,-1.92067 -0.27492,-1.92067 -0.18329,-1.92067 -0.27492,-1.92067 -0.27493,-1.92068 -0.27391,-1.92067 -0.36557,-1.82932 -0.27493,-1.82931 -0.27492,-1.7378 -0.36556,-1.82932 -0.36557,-1.64635 c -2.63387,-13.17078 -7.88429,-22.81127 -14.90897,-28.07962 -4.39088,-3.54868 -9.62236,-5.30491 -21.03671,-5.30491 h -32.46989 z m 18.38512,17.56124 h 14.90885 c 8.77988,0 14.1043,4.3903 16.73807,13.17096 2.63378,5.26826 3.47628,19.33571 3.47628,33.38453 v 2.01212 1.82932 l -0.0897,1.92066 v 1.82933 l -0.18329,1.82923 v 1.7379 l -0.18326,1.73778 -0.0897,1.73789 -0.0898,1.64633 -0.18326,1.64636 -0.18329,1.64634 -0.0897,1.5549 -0.18327,1.55491 -0.0897,1.55491 -0.18329,1.554897 -0.18327,1.463468 c -1.75613,9.658529 -7.06072,18.384318 -18.47617,18.384318 h -14.90894 v -92.196243 z"
       style="font-style:normal;font-variant:normal;font-weight:normal;font-stretch:normal;letter-spacing:normal;word-spacing:normal;text-anchor:start;fill:#000000;fill-opacity:1;fill-rule:nonzero;stroke:none;stroke-width:2.6355"
       inkscape:connector-curvature="0" />
  </g>
</svg>
